{
  "asset": {
    "generator": "Khronos glTF Blender I/O v4.3.47",
    "version": "2.0"
  },
  "scene": 0,
  "scenes": [
    {
      "name": "Scene",
      "nodes": [
        0,
        1
      ]
    }
  ],
  "nodes": [
    {
      "mesh": 0,
      "name": "Plane",
      "rotation": [
        0.7071068286895752,
        0,
        0,
        0.7071068286895752
      ],
      "scale": [
        0.19286319613456726,
        0.2800000011920929,
        0.19286319613456726
      ],
      "translation": [
        0,
        -0.04102066531777382,
        -0.00033969071228057146
      ]
    },
    {
      "mesh": 1,
      "name": "Curve",
      "rotation": [
        0.7071068286895752,
        0,
        0,
        0.7071068286895752
      ],
      "scale": [
        16.247451782226562,
        13.846395492553711,
        16.528154373168945
      ],
      "translation": [
        -0.22301995754241943,
        0.22222855687141418,
        0
      ]
    }
  ],
  "materials": [
    {
      "doubleSided": true,
      "name": "SVGMat.001",
      "pbrMetallicRoughness": {
        "baseColorFactor": [
          0.017641954123973846,
          0.022173885256052017,
          0.028426039963960648,
          1
        ],
        "metallicFactor": 0,
        "roughnessFactor": 0.4000000059604645
      }
    }
  ],
  "meshes": [
    {
      "name": "Plane.002",
      "primitives": [
        {
          "attributes": {
            "POSITION": 0,
            "NORMAL": 1,
            "TEXCOORD_0": 2
          },
          "indices": 3
        }
      ]
    },
    {
      "name": "Curve",
      "primitives": [
        {
          "attributes": {
            "POSITION": 4,
            "NORMAL": 5
          },
          "indices": 6,
          "material": 0
        }
      ]
    }
  ],
  "accessors": [
    {
      "bufferView": 0,
      "componentType": 5126,
      "count": 5710,
      "max": [
        1,
        0,
        1
      ],
      "min": [
        -1,
        -0.05000000074505806,
        -1
      ],
      "type": "VEC3"
    },
    {
      "bufferView": 1,
      "componentType": 5126,
      "count": 5710,
      "type": "VEC3"
    },
    {
      "bufferView": 2,
      "componentType": 5126,
      "count": 5710,
      "type": "VEC2"
    },
    {
      "bufferView": 3,
      "componentType": 5123,
      "count": 11412,
      "type": "SCALAR"
    },
    {
      "bufferView": 4,
      "componentType": 5126,
      "count": 25683,
      "max": [
        0.027552969753742218,
        -2.0489096641540527e-8,
        0.0270849522203207
      ],
      "min": [
        9.739596862345934e-8,
        -0.0010833349078893661,
        1.6763806343078613e-8
      ],
      "type": "VEC3"
    },
    {
      "bufferView": 5,
      "componentType": 5126,
      "count": 25683,
      "type": "VEC3"
    },
    {
      "bufferView": 6,
      "componentType": 5123,
      "count": 111144,
      "type": "SCALAR"
    }
  ],
  "bufferViews": [
    {
      "buffer": 0,
      "byteLength": 68520,
      "byteOffset": 0,
      "target": 34962
    },
    {
      "buffer": 0,
      "byteLength": 68520,
      "byteOffset": 68520,
      "target": 34962
    },
    {
      "buffer": 0,
      "byteLength": 45680,
      "byteOffset": 137040,
      "target": 34962
    },
    {
      "buffer": 0,
      "byteLength": 22824,
      "byteOffset": 182720,
      "target": 34963
    },
    {
      "buffer": 0,
      "byteLength": 308196,
      "byteOffset": 205544,
      "target": 34962
    },
    {
      "buffer": 0,
      "byteLength": 308196,
      "byteOffset": 513740,
      "target": 34962
    },
    {
      "buffer": 0,
      "byteLength": 222288,
      "byteOffset": 821936,
      "target": 34963
    }
  ],
  "buffers": [
    {
      "uri": "Github_Icon_data.bin",
      "byteLength": 1044224
    }
  ]
}