{
  "asset": {
    "generator": "Khronos glTF Blender I/O v4.3.47",
    "version": "2.0"
  },
  "scene": 0,
  "scenes": [
    {
      "name": "Scene",
      "nodes": [
        0,
        1
      ]
    }
  ],
  "nodes": [
    {
      "mesh": 0,
      "name": "Plane",
      "rotation": [
        0.7071068286895752,
        0,
        0,
        0.7071068286895752
      ],
      "scale": [
        0.19286319613456726,
        0.2800000011920929,
        0.19286319613456726
      ],
      "translation": [
        0,
        -0.04102066531777382,
        -0.00033969071228057146
      ]
    },
    {
      "mesh": 1,
      "name": "Curve",
      "rotation": [
        0.7071068286895752,
        0,
        0,
        0.7071068286895752
      ],
      "scale": [
        16.247451782226562,
        13.846395492553711,
        16.528154373168945
      ],
      "translation": [
        -0.22301995754241943,
        0.22222855687141418,
        0
      ]
    }
  ],
  "materials": [
    {
      "doubleSided": true,
      "name": "SVGMat.001",
      "pbrMetallicRoughness": {
        "baseColorFactor": [
          0.017641954123973846,
          0.022173885256052017,
          0.028426039963960648,
          1
        ],
        "metallicFactor": 0,
        "roughnessFactor": 0.4000000059604645
      }
    }
  ],
  "meshes": [
    {
      "name": "Plane.002",
      "primitives": [
        {
          "attributes": {
            "POSITION": 0,
            "NORMAL": 1,
            "TEXCOORD_0": 2
          },
          "indices": 3
        }
      ]
    },
    {
      "name": "Curve",
      "primitives": [
        {
          "attributes": {
            "POSITION": 4,
            "NORMAL": 5
          },
          "indices": 6,
          "material": 0
        }
      ]
    }
  ],
  "accessors": [
    {
      "bufferView": 0,
      "componentType": 5126,
      "count": 362,
      "max": [
        0.9992794394493103,
        1.54224799597813e-10,
        1
      ],
      "min": [
        -0.9995785355567932,
        -0.05000000447034836,
        -0.998971700668335
      ],
      "type": "VEC3"
    },
    {
      "bufferView": 1,
      "componentType": 5126,
      "count": 362,
      "type": "VEC3"
    },
    {
      "bufferView": 2,
      "componentType": 5126,
      "count": 362,
      "type": "VEC2"
    },
    {
      "bufferView": 3,
      "componentType": 5123,
      "count": 570,
      "type": "SCALAR"
    },
    {
      "bufferView": 4,
      "componentType": 5126,
      "count": 3881,
      "max": [
        0.027553346008062363,
        -1.5086838445199646e-8,
        0.027084926143288612
      ],
      "min": [
        -2.371714629134658e-7,
        -0.0010833380511030555,
        1.862645149230957e-8
      ],
      "type": "VEC3"
    },
    {
      "bufferView": 5,
      "componentType": 5126,
      "count": 3881,
      "type": "VEC3"
    },
    {
      "bufferView": 6,
      "componentType": 5123,
      "count": 5556,
      "type": "SCALAR"
    }
  ],
  "bufferViews": [
    {
      "buffer": 0,
      "byteLength": 4344,
      "byteOffset": 0,
      "target": 34962
    },
    {
      "buffer": 0,
      "byteLength": 4344,
      "byteOffset": 4344,
      "target": 34962
    },
    {
      "buffer": 0,
      "byteLength": 2896,
      "byteOffset": 8688,
      "target": 34962
    },
    {
      "buffer": 0,
      "byteLength": 1140,
      "byteOffset": 11584,
      "target": 34963
    },
    {
      "buffer": 0,
      "byteLength": 46572,
      "byteOffset": 12724,
      "target": 34962
    },
    {
      "buffer": 0,
      "byteLength": 46572,
      "byteOffset": 59296,
      "target": 34962
    },
    {
      "buffer": 0,
      "byteLength": 11112,
      "byteOffset": 105868,
      "target": 34963
    }
  ],
  "buffers": [
    {
      "uri": "Github_Icon_data.bin",
      "byteLength": 116980
    }
  ]
}